<?xml version="1.0" encoding="UTF-8"?>
<!DOCTYPE svg PUBLIC "-//W3C//DTD SVG 1.1//EN" "http://www.w3.org/Graphics/SVG/1.1/DTD/svg11.dtd">
<svg xmlns="http://www.w3.org/2000/svg" version="1.1" width="300px" height="300px" style="shape-rendering:geometricPrecision; text-rendering:geometricPrecision; image-rendering:optimizeQuality; fill-rule:evenodd; clip-rule:evenodd" xmlns:xlink="http://www.w3.org/1999/xlink">
<g><path style="opacity:1" fill="#fec200" d="M -0.5,-0.5 C 99.5,-0.5 199.5,-0.5 299.5,-0.5C 299.5,99.5 299.5,199.5 299.5,299.5C 199.5,299.5 99.5,299.5 -0.5,299.5C -0.5,199.5 -0.5,99.5 -0.5,-0.5 Z"/></g>
<g><path style="opacity:1" fill="#403f3e" d="M 219.5,116.5 C 218.957,116.56 218.624,116.893 218.5,117.5C 221.616,117.92 224.283,118.92 226.5,120.5C 223.642,135.562 215.808,147.229 203,155.5C 201.434,182.502 187.934,200.335 162.5,209C 134.977,215.829 112.811,207.995 96,185.5C 81.3559,156.445 85.1893,130.278 107.5,107C 118.993,98.0895 131.993,92.7562 146.5,91C 173.5,90.3333 200.5,90.3333 227.5,91C 225.684,99.7654 223.017,108.265 219.5,116.5 Z"/></g>
<g><path style="opacity:1" fill="#fdfdfd" d="M 145.5,98.5 C 168.5,98.5 191.5,98.5 214.5,98.5C 212.992,107.515 209.325,115.515 203.5,122.5C 206.768,123.487 210.102,123.82 213.5,123.5C 211.073,135.02 204.74,143.687 194.5,149.5C 191.111,186.055 171.111,202.888 134.5,200C 105.076,191.698 92.2428,172.198 96,141.5C 100.042,123.586 110.542,111.086 127.5,104C 133.519,101.835 139.519,100.001 145.5,98.5 Z"/></g>
<g><path style="opacity:1" fill="#a5841d" d="M 219.5,116.5 C 221.948,117.473 224.615,117.806 227.5,117.5C 227.737,118.791 227.404,119.791 226.5,120.5C 224.283,118.92 221.616,117.92 218.5,117.5C 218.624,116.893 218.957,116.56 219.5,116.5 Z"/></g>
<g><path style="opacity:1" fill="#484848" d="M 117.5,130.5 C 122.325,130.488 124.491,132.821 124,137.5C 121.048,141.482 118.048,141.482 115,137.5C 114.333,136.167 114.333,134.833 115,133.5C 116.045,132.627 116.878,131.627 117.5,130.5 Z"/></g>
<g><path style="opacity:1" fill="#474747" d="M 170.5,130.5 C 177.821,131.319 179.154,134.486 174.5,140C 167.075,139.484 165.742,136.318 170.5,130.5 Z"/></g>
<g><path style="opacity:1" fill="#fe6f6e" d="M 135.5,140.5 C 141.842,140.334 148.175,140.5 154.5,141C 166.526,145.553 170.693,154.053 167,166.5C 162.307,175.18 154.974,178.847 145,177.5C 128.594,178.427 120.927,170.76 122,154.5C 124.017,147.318 128.517,142.652 135.5,140.5 Z"/></g>
<g><path style="opacity:1" fill="#4a4040" d="M 137.5,155.5 C 144.289,155.258 145.955,157.925 142.5,163.5C 138.3,165.527 135.966,164.194 135.5,159.5C 135.752,157.927 136.418,156.594 137.5,155.5 Z"/></g>
<g><path style="opacity:1" fill="#4a4040" d="M 150.5,155.5 C 157.289,155.258 158.955,157.925 155.5,163.5C 151.3,165.527 148.966,164.194 148.5,159.5C 148.752,157.927 149.418,156.594 150.5,155.5 Z"/></g>
</svg>
